<?xml version="1.0" encoding="UTF-8"?>
<svg id="_Слой_1" data-name="Слой 1" xmlns="http://www.w3.org/2000/svg" viewBox="0 0 161 161">
  <defs>
    <style>
      .cls-1 {
        fill: #272727;
      }
    </style>
  </defs>
  <g>
    <path class="cls-1" d="M40.25,20.13c0,11.11-9.01,20.12-20.13,20.12S0,31.24,0,20.13,9.01,0,20.12,0s20.13,9.01,20.13,20.13Z"/>
    <circle class="cls-1" cx="20.12" cy="80.5" r="20.12"/>
    <path class="cls-1" d="M40.25,140.87c0,11.11-9.01,20.13-20.13,20.13S0,151.99,0,140.87s9.01-20.12,20.12-20.12,20.13,9.01,20.13,20.12Z"/>
  </g>
  <g>
    <path class="cls-1" d="M100.62,20.13c0,11.11-9.01,20.12-20.13,20.12s-20.12-9.01-20.12-20.12S69.39,0,80.5,0s20.13,9.01,20.13,20.13Z"/>
    <circle class="cls-1" cx="80.5" cy="80.5" r="20.12"/>
    <path class="cls-1" d="M100.62,140.87c0,11.11-9.01,20.13-20.13,20.13s-20.12-9.01-20.12-20.13,9.01-20.12,20.12-20.12,20.13,9.01,20.13,20.12Z"/>
  </g>
  <g>
    <path class="cls-1" d="M161,20.13c0,11.11-9.01,20.12-20.12,20.12s-20.13-9.01-20.13-20.12S129.76,0,140.87,0s20.12,9.01,20.12,20.13Z"/>
    <circle class="cls-1" cx="140.87" cy="80.5" r="20.12"/>
    <path class="cls-1" d="M161,140.87c0,11.11-9.01,20.13-20.12,20.13s-20.13-9.01-20.13-20.13,9.01-20.12,20.13-20.12,20.12,9.01,20.12,20.12Z"/>
  </g>
</svg>